<?xml version="1.0" encoding="UTF-8"?>
<svg width="24px" height="24px" viewBox="0 0 24 24" version="1.1" xmlns="http://www.w3.org/2000/svg" xmlns:xlink="http://www.w3.org/1999/xlink">
    <!-- Generator: Sketch 49.3 (51167) - http://www.bohemiancoding.com/sketch -->
    <title>icon_customerservice</title>
    <desc>Created with Sketch.</desc>
    <defs>
        <polygon id="path-1" points="0.021167939 0.0233703885 11.4365625 0.0233703885 11.4365625 14.96 0.021167939 14.96"></polygon>
    </defs>
    <g id="icon_customerservice" stroke="none" stroke-width="1" fill="none" fill-rule="evenodd">
        <g id="Page-1" transform="translate(1.000000, 1.000000)">
            <g id="Group-3" transform="translate(9.695513, 7.040000)">
                <mask id="mask-2" fill="white">
                    <use xlink:href="#path-1"></use>
                </mask>
                <g id="Clip-2"></g>
                <path d="M10.3121658,7.20414592 C10.2948351,7.62344216 10.1885113,8.01049237 9.93611762,8.34879404 C9.70031467,8.66488831 9.40182509,8.89134501 9.03523003,9.01643607 C8.94573568,9.04699267 8.8998546,9.0959126 8.86454861,9.17756825 C8.48067057,10.066158 7.94308377,10.8446656 7.25264757,11.5092471 C6.40093533,12.3290355 5.40195964,12.8871096 4.28735026,13.2323648 C4.21824219,13.2537887 4.18675564,13.2841739 4.16605903,13.3555216 C3.92273655,14.1937958 3.38662977,14.735245 2.55303602,14.910015 C1.81631293,15.0644629 1.15619358,14.8609237 0.620253906,14.3011846 C0.172280816,13.8333847 -0.0227256944,13.2607423 0.0294097222,12.6152832 C0.10718316,11.6521628 0.778808594,10.8772789 1.67556641,10.6909767 C2.55265408,10.5088124 3.27130642,10.7976065 3.83438802,11.5075332 C3.85666016,11.5355923 3.91507378,11.5615703 3.94460286,11.5514827 C5.4130599,11.0493801 6.54631293,10.1365753 7.24978299,8.70058664 C7.25135851,8.6973547 7.25157335,8.6934127 7.25455729,8.68053388 C6.99175564,8.44984137 6.77712674,8.17223666 6.68226128,7.82374946 C6.62246311,7.60400151 6.58064019,7.3711054 6.57951823,7.1438652 C6.57121094,5.43012498 6.57877821,3.71633578 6.57355035,2.00259555 C6.57044705,0.983919935 7.22132812,0.202963863 8.19132378,0.0463123404 C8.7563151,-0.0449167267 9.26193793,0.139524648 9.68840278,0.535609624 C10.0004275,0.825407594 10.2032639,1.17920792 10.2748546,1.60719614 C10.2934505,1.71852694 10.3027843,1.83147372 10.3166298,1.94549781 C10.5740126,1.95720137 10.8092187,2.02154651 11.0126758,2.18610651 C11.2097591,2.34547581 11.3408615,2.54791326 11.3966254,2.79804642 C11.4184918,2.89625355 11.4337934,2.99845165 11.4340799,3.09888687 C11.4368012,4.08634481 11.4375651,5.07377827 11.434987,6.0612362 C11.4335786,6.61478069 11.1052018,7.04181401 10.5823437,7.17415247 C10.4989128,7.19528255 10.4101107,7.19391142 10.3121658,7.20414592" id="Fill-1" fill="#FFFFFF" mask="url(#mask-2)"></path>
            </g>
            <path d="M1.21063851,13.9733087 C0.722797501,13.970584 0.342966916,13.7802836 0.127882127,13.3697115 C0.0526856558,13.2262043 0.00861303527,13.0550477 0.00681892859,12.8959981 C-0.00404971766,11.9290247 0.00130660083,10.9618618 0.00141060701,9.99474633 C0.00148861165,9.47713021 0.343226931,9.06779008 0.893289638,8.93269386 C0.995761731,8.90750844 1.10312211,8.89874211 1.21947903,8.88066452 C1.2390842,8.57258733 1.30351603,8.26107469 1.487997,7.98559876 C1.91554042,7.34726793 2.53492325,7.01303391 3.3666347,7.04170218 C4.3183953,7.07449298 5.12969554,7.76222325 5.25486698,8.57315596 C5.27161197,8.6816215 5.28331267,8.79181661 5.28341668,8.90120616 C5.28518478,10.5867341 5.2754602,12.2722857 5.28840897,13.9577425 C5.29524738,14.8491122 4.63387205,15.5291897 3.89027984,15.7491298 C2.73916539,16.0896424 1.50599007,15.4395836 1.27533035,14.3602118 C1.24823674,14.2334554 1.2323238,14.1047562 1.21063851,13.9733087" id="Fill-4" fill="#FFFFFF"></path>
            <path d="M17.5144091,6.1245014 C16.9281212,4.41471635 15.7753976,3.13188609 14.024851,2.31415297 C12.9385907,1.80671059 11.7700991,1.57439927 10.5619276,1.68412632 C7.48587761,1.96348288 5.51395991,3.52304854 4.49364313,6.16 C3.90586996,5.96352623 3.29232835,5.93060359 2.64423077,6.10667302 C2.91278209,5.00682661 3.40750664,4.01754331 4.14380113,3.13523032 C5.5713139,1.4246544 7.45169295,0.365232557 9.78612647,0.078916376 C15.1825252,-0.582925699 18.763424,3.04678888 19.3910256,6.15315336 C18.7636963,5.95094015 18.1461446,5.93171081 17.5144091,6.1245014 Z" id="Fill-6" fill="#FFFFFF"></path>
        </g>
        <rect id="Rectangle" x="0" y="0" width="24" height="24"></rect>
    </g>
</svg>