<?xml version="1.0" encoding="UTF-8"?>
<svg width="24px" height="24px" viewBox="0 0 24 24" version="1.1" xmlns="http://www.w3.org/2000/svg" xmlns:xlink="http://www.w3.org/1999/xlink">
    <!-- Generator: Sketch 49.3 (51167) - http://www.bohemiancoding.com/sketch -->
    <title>icon_redenvelope</title>
    <desc>Created with Sketch.</desc>
    <defs>
        <polygon id="path-1" points="0 0.0469409351 15.9020082 0.0469409351 15.9020082 7.78765476 0 7.78765476"></polygon>
        <polygon id="path-3" points="1.63265306e-05 0.161119739 15.9183673 0.161119739 15.9183673 14.2328762 1.63265306e-05 14.2328762"></polygon>
    </defs>
    <g id="icon_redenvelope" stroke="none" stroke-width="1" fill="none" fill-rule="evenodd">
        <g id="Page-1" transform="translate(4.000000, 1.000000)">
            <g id="Group-3">
                <mask id="mask-2" fill="white">
                    <use xlink:href="#path-1"></use>
                </mask>
                <g id="Clip-2"></g>
                <path d="M4.34723265,7.78765476 C4.8298449,6.18227478 6.26641633,5.01438431 7.95915102,5.01438431 C9.65106939,5.01438431 11.087151,6.18125061 11.5704163,7.78577712 C14.1114776,6.90584796 15.8701714,5.13352894 15.9018449,3.09356125 L15.9020082,3.09356125 L15.9020082,1.41239299 C15.9020082,0.658265535 15.3171918,0.0468385185 14.5958857,0.0468385185 L1.3060898,0.0468385185 C0.584783673,0.0468385185 -3.26530612e-05,0.658265535 -3.26530612e-05,1.41239299 L-3.26530612e-05,3.09356125 C0.043722449,5.13540658 1.80796735,6.90857906 4.34723265,7.78765476" id="Fill-1" fill="#FFFFFF" mask="url(#mask-2)"></path>
            </g>
            <g id="Group-6" transform="translate(0.000000, 7.000000)">
                <mask id="mask-4" fill="white">
                    <use xlink:href="#path-3"></use>
                </mask>
                <g id="Clip-5"></g>
                <path d="M7.9592,6.05658741 C6.05536327,6.05658741 4.47593469,4.58992166 4.21307755,2.68864435 C2.48948571,2.16372169 1.02891429,1.28619606 1.63265306e-05,0.169761139 L1.63265306e-05,12.8773626 C1.63265306e-05,13.625945 0.584832653,14.2328762 1.30613878,14.2328762 L14.6122612,14.2328762 C15.3335673,14.2328762 15.9183837,13.625945 15.9183837,12.8773626 L15.9183837,0.161119739 C14.8924245,1.28060456 13.4318531,2.15999403 11.7054857,2.6862722 C11.4436082,4.58890502 9.8636898,6.05658741 7.9592,6.05658741 Z" id="Fill-4" fill="#FFFFFF" mask="url(#mask-4)"></path>
            </g>
            <path d="M6,9 C6,10.1027147 6.89716214,11 8.00007938,11 C9.10283786,11 10,10.1027147 10,9 C10,7.89728528 9.10283786,7 8.00007938,7 C6.89716214,7 6,7.89728528 6,9" id="Fill-7" fill="#FFFFFF"></path>
        </g>
        <rect id="Rectangle-13" x="0" y="0" width="24" height="24"></rect>
    </g>
</svg>