<?xml version="1.0" encoding="UTF-8"?>
<svg width="24px" height="24px" viewBox="0 0 24 24" version="1.1" xmlns="http://www.w3.org/2000/svg" xmlns:xlink="http://www.w3.org/1999/xlink">
    <!-- Generator: Sketch 49.3 (51167) - http://www.bohemiancoding.com/sketch -->
    <title>icon_phone</title>
    <desc>Created with Sketch.</desc>
    <defs>
        <polygon id="path-1" points="0 5.69839959e-05 19.7299202 5.69839959e-05 19.7299202 19.8976364 0 19.8976364"></polygon>
    </defs>
    <g id="icon_phone" stroke="none" stroke-width="1" fill="none" fill-rule="evenodd">
        <g id="Page-1" transform="translate(2.000000, 2.000000)">
            <mask id="mask-2" fill="white">
                <use xlink:href="#path-1"></use>
            </mask>
            <g id="Clip-2"></g>
            <path d="M6.21190909,8.04706061 C7.94221212,9.71342424 9.68857576,11.4279697 11.490697,13.081303 C11.6816061,13.2567576 12.3085758,13.2173636 12.5494848,13.0349394 C13.991303,11.9452424 15.290697,12.0697879 16.6382727,13.2237273 C17.3516061,13.8346364 18.1967576,14.2934242 18.9919091,14.8058485 C19.8879697,15.3828182 19.8940303,16.1197879 19.4049394,16.9540303 C19.3288788,17.0837273 19.2300909,17.201 19.1328182,17.3167576 C16.8267576,20.061303 16.350697,20.7473636 12.610697,18.7416061 C7.60645455,16.0582727 3.7940303,12.0231212 0.929181818,7.11221212 C0.872212121,7.01433333 0.831909091,6.90736364 0.783121212,6.80463636 C-0.699606061,3.66948485 -0.125666667,1.90887879 2.92251515,0.254030303 C3.70069697,-0.168393939 4.37584848,-0.0899090909 4.89160606,0.686757576 C5.60281818,1.75887879 6.26463636,2.8679697 7.03463636,3.89615152 C7.67827273,4.75493939 7.64978788,5.54554545 7.12160606,6.40857576 C6.84615152,6.85887879 6.60706061,7.33130303 6.21190909,8.04706061" id="Fill-1" fill="#FFFFFF" mask="url(#mask-2)"></path>
        </g>
        <rect id="Rectangle-11" x="0" y="0" width="24" height="24"></rect>
    </g>
</svg>