<?xml version="1.0" encoding="UTF-8"?>
<svg width="107px" height="146px" viewBox="0 0 107 146" version="1.1" xmlns="http://www.w3.org/2000/svg" xmlns:xlink="http://www.w3.org/1999/xlink">
    <!-- Generator: Sketch 51.2 (57519) - http://www.bohemiancoding.com/sketch -->
    <title>Artboard</title>
    <desc>Created with Sketch.</desc>
    <defs>
        <linearGradient x1="50.5220465%" y1="-14.2171166%" x2="49.3843721%" y2="128.720798%" id="linearGradient-1">
            <stop stop-color="#ED7B5C" offset="0%"></stop>
            <stop stop-color="#D94140" offset="77.16%"></stop>
        </linearGradient>
        <linearGradient x1="50.1078212%" y1="-14.5586735%" x2="49.6965549%" y2="128.564626%" id="linearGradient-2">
            <stop stop-color="#ED7B5C" offset="0%"></stop>
            <stop stop-color="#D94140" offset="77.16%"></stop>
        </linearGradient>
        <linearGradient x1="98.0586765%" y1="34.6144295%" x2="2.65440163%" y2="65.1570202%" id="linearGradient-3">
            <stop stop-color="#D94140" stop-opacity="0" offset="2.512887%"></stop>
            <stop stop-color="#D94140" stop-opacity="0.8968" offset="52%"></stop>
            <stop stop-color="#D94140" offset="57.7%"></stop>
            <stop stop-color="#C6435C" offset="100%"></stop>
        </linearGradient>
        <radialGradient cx="4.27816615%" cy="1.18715712%" fx="4.27816615%" fy="1.18715712%" r="111.694665%" id="radialGradient-4">
            <stop stop-color="#FCC854" offset="0%"></stop>
            <stop stop-color="#F6AB34" offset="100%"></stop>
        </radialGradient>
        <radialGradient cx="81.1985234%" cy="30.4637326%" fx="81.1985234%" fy="30.4637326%" r="70.6584254%" id="radialGradient-5">
            <stop stop-color="#FEF37F" offset="0%"></stop>
            <stop stop-color="#F7CC4C" offset="77.3%"></stop>
        </radialGradient>
        <radialGradient cx="81.706485%" cy="9.46459914%" fx="81.706485%" fy="9.46459914%" r="144.222625%" id="radialGradient-6">
            <stop stop-color="#FCD63F" offset="0%"></stop>
            <stop stop-color="#F6AB34" offset="77.3%"></stop>
        </radialGradient>
        <radialGradient cx="81.7499604%" cy="9.55151551%" fx="81.7499604%" fy="9.55151551%" r="144.222625%" id="radialGradient-7">
            <stop stop-color="#FCD63F" offset="0%"></stop>
            <stop stop-color="#F6AB34" offset="77.3%"></stop>
        </radialGradient>
        <radialGradient cx="112.838841%" cy="-9.21208409%" fx="112.838841%" fy="-9.21208409%" r="239.113759%" gradientTransform="translate(1.128388,-0.092121),scale(1.000000,0.872976),rotate(-9.880967),translate(-1.128388,0.092121)" id="radialGradient-8">
            <stop stop-color="#FEF37F" offset="0%"></stop>
            <stop stop-color="#F7CC4C" offset="77.3%"></stop>
        </radialGradient>
        <radialGradient cx="112.786932%" cy="-9.40624918%" fx="112.786932%" fy="-9.40624918%" r="239.113759%" gradientTransform="translate(1.127869,-0.094062),scale(1.000000,0.872976),rotate(-9.880967),translate(-1.127869,0.094062)" id="radialGradient-9">
            <stop stop-color="#FEF37F" offset="0%"></stop>
            <stop stop-color="#F7CC4C" offset="77.3%"></stop>
        </radialGradient>
    </defs>
    <g id="Artboard" stroke="none" stroke-width="1" fill="none" fill-rule="evenodd">
        <g id="entry.7e989c6" transform="translate(-23.000000, 0.000000)" fill-rule="nonzero">
            <g id="Group">
                <g transform="translate(22.000000, 0.000000)" id="Shape">
                    <path d="M103.2,146 L5.4,146 C2.7,146 0.6,144.032147 0.6,141.706503 L0.6,8.51865031 C0.6,3.95680982 4.8,0.2 9.9,0.2 L98.8,0.2 C103.9,0.2 108.1,3.95680982 108.1,8.51865031 L108.1,141.706503 C108,144.121595 105.9,146 103.2,146 Z" fill="url(#linearGradient-1)"></path>
                    <path d="M0.6,23 L0.6,23.1 C1,43 24.9,59 54.3,59 C83.7,59 107.7,43 108,23.1 L108,23 L108,4.3 C108,2.1 106.2,0.2 103.9,0.2 L4.7,0.2 C2.4,0.2 0.6,2 0.6,4.3 L0.6,23 Z" fill="url(#linearGradient-2)"></path>
                </g>
            </g>
            <g id="Group" transform="translate(54.000000, 38.000000)">
                <circle id="Oval" fill="url(#linearGradient-3)" cx="21.5" cy="22.8" r="16.9"></circle>
                <g>
                    <circle id="Oval" fill="url(#radialGradient-4)" cx="24" cy="26" r="24"></circle>
                    <circle id="Oval" fill="url(#radialGradient-5)" cx="26" cy="24" r="24"></circle>
                    <circle id="Oval" fill="url(#radialGradient-6)" opacity="0.9" cx="26" cy="24" r="18"></circle>
                    <circle id="Oval" fill="url(#radialGradient-7)" cx="24" cy="25" r="18"></circle>
                    <g transform="translate(14.000000, 13.000000)" id="Shape">
                        <path d="M21.7125,1.3 C21.7125,1.15555556 21.56875,1.15555556 21.425,1.15555556 L17.4,1.15555556 C17.25625,1.15555556 17.1125,1.15555556 17.1125,1.3 L10.93125,11.7 L4.75,1.3 C4.75,1.15555556 4.60625,1.15555556 4.4625,1.15555556 L0.4375,1.15555556 C0.29375,1.15555556 0.15,1.3 0.15,1.3 C0.15,1.44444444 0.15,1.58888889 0.15,1.73333333 L5.325,9.82222222 L3.025,9.82222222 C2.88125,9.82222222 2.59375,9.96666667 2.59375,10.2555556 L2.59375,12.4222222 C2.59375,12.5666667 2.59375,12.5666667 2.7375,12.7111111 C2.7375,12.7111111 2.88125,12.8555556 3.025,12.8555556 L7.19375,12.8555556 L8.63125,15.3111111 L2.88125,15.3111111 C2.7375,15.3111111 2.7375,15.3111111 2.59375,15.4555556 C2.59375,15.4555556 2.45,15.6 2.45,15.7444444 L2.45,17.9111111 C2.45,18.0555556 2.59375,18.3444444 2.88125,18.3444444 L8.91875,18.3444444 L8.91875,25.4222222 C8.91875,25.5666667 9.0625,25.8555556 9.35,25.8555556 L12.65625,25.8555556 C12.65625,25.8555556 12.65625,25.8555556 12.65625,25.8555556 C12.8,25.8555556 12.8,25.8555556 12.8,25.7111111 C12.8,25.7111111 12.94375,25.5666667 12.94375,25.4222222 L12.94375,18.3444444 L18.98125,18.3444444 C19.125,18.3444444 19.125,18.3444444 19.26875,18.2 C19.26875,18.2 19.4125,18.0555556 19.4125,17.9111111 L19.4125,15.7444444 C19.4125,15.6 19.26875,15.3111111 18.98125,15.3111111 L13.23125,15.3111111 L14.66875,12.8555556 L18.8375,12.8555556 C18.98125,12.8555556 19.26875,12.7111111 19.26875,12.4222222 L19.26875,10.2555556 C19.26875,10.1111111 19.26875,10.1111111 19.125,9.96666667 C19.125,9.96666667 18.98125,9.82222222 18.8375,9.82222222 L16.39375,9.82222222 L21.56875,1.73333333 C21.7125,1.58888889 21.7125,1.44444444 21.7125,1.3 Z" fill="url(#radialGradient-8)"></path>
                        <path d="M21.7125,0.577777778 C21.7125,0.433333333 21.56875,0.433333333 21.425,0.433333333 L17.4,0.433333333 C17.25625,0.433333333 17.1125,0.433333333 17.1125,0.577777778 L10.93125,10.9777778 L4.75,0.577777778 C4.75,0.433333333 4.60625,0.433333333 4.4625,0.433333333 L0.4375,0.433333333 C0.29375,0.433333333 0.15,0.577777778 0.15,0.577777778 C0.15,0.722222222 0.15,0.866666667 0.15,1.01111111 L5.325,9.1 L3.025,9.1 C2.88125,9.1 2.59375,9.24444444 2.59375,9.53333333 L2.59375,11.7 C2.59375,11.8444444 2.59375,11.8444444 2.7375,11.9888889 C2.7375,11.9888889 2.88125,12.1333333 3.025,12.1333333 L7.19375,12.1333333 L8.63125,14.5888889 L2.88125,14.5888889 C2.7375,14.5888889 2.7375,14.5888889 2.59375,14.7333333 C2.59375,14.7333333 2.45,14.8777778 2.45,15.0222222 L2.45,17.1888889 C2.45,17.3333333 2.59375,17.6222222 2.88125,17.6222222 L8.91875,17.6222222 L8.91875,24.7 C8.91875,24.8444444 9.0625,25.1333333 9.35,25.1333333 L12.65625,25.1333333 C12.65625,25.1333333 12.65625,25.1333333 12.65625,25.1333333 C12.8,25.1333333 12.8,25.1333333 12.8,24.9888889 C12.8,24.9888889 12.94375,24.8444444 12.94375,24.7 L12.94375,17.6222222 L18.98125,17.6222222 C19.125,17.6222222 19.125,17.6222222 19.26875,17.4777778 C19.26875,17.4777778 19.4125,17.3333333 19.4125,17.1888889 L19.4125,15.0222222 C19.4125,14.8777778 19.26875,14.5888889 18.98125,14.5888889 L13.23125,14.5888889 L14.66875,12.1333333 L18.8375,12.1333333 C18.98125,12.1333333 19.26875,11.9888889 19.26875,11.7 L19.26875,9.53333333 C19.26875,9.38888889 19.26875,9.38888889 19.125,9.24444444 C19.125,9.24444444 18.98125,9.1 18.8375,9.1 L16.39375,9.1 L21.56875,1.01111111 C21.7125,0.722222222 21.7125,0.577777778 21.7125,0.577777778 Z" fill="url(#radialGradient-9)"></path>
                    </g>
                </g>
            </g>
        </g>
    </g>
</svg>