<?xml version="1.0" encoding="UTF-8"?>
<svg width="24px" height="24px" viewBox="0 0 24 24" version="1.1" xmlns="http://www.w3.org/2000/svg" xmlns:xlink="http://www.w3.org/1999/xlink">
    <!-- Generator: Sketch 51.2 (57519) - http://www.bohemiancoding.com/sketch -->
    <title>iconmonstr-qr-code-2</title>
    <desc>Created with Sketch.</desc>
    <defs></defs>
    <g id="Page-1" stroke="none" stroke-width="1" fill="none" fill-rule="evenodd">
        <g id="iconmonstr-qr-code-2" fill="#FFFFFF" fill-rule="nonzero">
            <path d="M19,2 C20.654,2 22,3.346 22,5 L22,19 C22,20.654 20.654,22 19,22 L5,22 C3.346,22 2,20.654 2,19 L2,5 C2,3.346 3.346,2 5,2 L19,2 Z M19,0 L5,0 C2.239,0 0,2.239 0,5 L0,19 C0,21.761 2.239,24 5,24 L19,24 C21.762,24 24,21.761 24,19 L24,5 C24,2.239 21.762,0 19,0 Z M11,8 L10,8 L10,6 L11,6 L11,7 L13,7 L13,8 L12,8 L12,9 L11,9 L11,8 Z M13,20 L13,19 L12,19 L12,20 L13,20 Z M12,5 L12,4 L10,4 L10,5 L11,5 L11,6 L12,6 L12,5 Z M20,4 L20,10 L19,10 L19,9 L15,9 L15,4 L20,4 Z M19,8 L19,5 L16,5 L16,8 L19,8 Z M5,10 L4,10 L4,11 L6,11 L6,10 L5,10 Z M5,13 L6,13 L6,14 L7,14 L7,11 L6,11 L6,12 L4,12 L4,14 L5,14 L5,13 Z M10,14 L10,16 L11,16 L11,14 L10,14 Z M14,4 L13,4 L13,7 L14,7 L14,4 Z M14,9 L14,8 L13,8 L13,9 L14,9 Z M17,7 L18,7 L18,6 L17,6 L17,7 Z M7,6 L6,6 L6,7 L7,7 L7,6 Z M9,4 L9,9 L4,9 L4,4 L9,4 Z M8,5 L5,5 L5,8 L8,8 L8,5 Z M17,10 L17,11 L16,11 L16,10 L14,10 L14,11 L13,11 L13,10 L10,10 L10,9 L9,9 L9,10 L8,10 L8,11 L9,11 L9,13 L10,13 L10,12 L11,12 L11,14 L12,14 L12,12 L15,12 L15,13 L13,13 L13,14 L15,14 L15,15 L16,15 L16,12 L17,12 L17,13 L18,13 L18,15 L19,15 L19,14 L20,14 L20,13 L19,13 L19,12 L18,12 L18,11 L19,11 L19,10 L17,10 Z M6,18 L7,18 L7,17 L6,17 L6,18 Z M4,15 L9,15 L9,20 L4,20 L4,15 Z M5,19 L8,19 L8,16 L5,16 L5,19 Z M17,16 L17,15 L16,15 L16,16 L17,16 Z M17,17 L16,17 L16,18 L15,18 L15,17 L14,17 L14,16 L15,16 L15,15 L13,15 L13,14 L12,14 L12,16 L11,16 L11,17 L10,17 L10,20 L11,20 L11,19 L12,19 L12,18 L14,18 L14,20 L15,20 L15,19 L16,19 L16,20 L18,20 L18,19 L19,19 L19,18 L17,18 L17,17 Z M8,14 L9,14 L9,13 L8,13 L8,14 Z M18,16 L18,17 L19,17 L19,18 L20,18 L20,15 L19,15 L19,16 L18,16 Z M20,20 L20,19 L19,19 L19,20 L20,20 Z M20,12 L20,11 L19,11 L19,12 L20,12 Z" id="Shape"></path>
        </g>
    </g>
</svg>