<?xml version="1.0" encoding="UTF-8"?>
<svg width="24px" height="24px" viewBox="0 0 24 24" version="1.1" xmlns="http://www.w3.org/2000/svg" xmlns:xlink="http://www.w3.org/1999/xlink">
    <!-- Generator: Sketch 49.3 (51167) - http://www.bohemiancoding.com/sketch -->
    <title>icon_QQ</title>
    <desc>Created with Sketch.</desc>
    <defs></defs>
    <g id="icon_QQ" stroke="none" stroke-width="1" fill="none" fill-rule="evenodd">
        <path d="M4.77904328,9.8359375 C4.77904328,9.67969141 4.82080866,9.48827734 4.90432802,9.26171875 C4.98784738,9.03516016 5.07896355,8.85937891 5.17767654,8.734375 C5.17007973,8.56249609 5.19855353,8.35547266 5.26309795,8.11328125 C5.32764237,7.87108984 5.41306378,7.703125 5.51936219,7.609375 C5.51936219,6.52343359 5.87053531,5.39648828 6.57289294,4.22851562 C7.27525057,3.06054297 8.10099089,2.2421875 9.0501139,1.7734375 C10.1055467,1.2578125 11.335615,1 12.7403189,1 C13.7501936,1 14.7600569,1.21483984 15.7699317,1.64453125 C16.1419932,1.80859375 16.4836788,1.99609375 16.7949886,2.20703125 C17.1062984,2.41796875 17.3758542,2.63672266 17.6036446,2.86328125 C17.8314351,3.08983984 18.0402392,3.35546875 18.2300683,3.66015625 C18.4198975,3.96484375 18.5793508,4.25391016 18.7084282,4.52734375 C18.8375057,4.80077734 18.9608998,5.13085938 19.0785877,5.51757812 C19.1962756,5.90429688 19.2930866,6.25390234 19.3690205,6.56640625 C19.4449544,6.87891016 19.5284738,7.26171484 19.61959,7.71484375 C20.0485991,8.42187109 20.2574032,9.00780859 20.2574032,9.53125 C20.2574032,9.64062109 20.2232346,9.79687891 20.1548975,10 C20.0865604,10.2031211 20.0523918,10.3515625 20.0523918,10.4453125 C20.0808656,10.5058633 20.0941572,10.5253867 20.1093394,10.5449219 C20.7167768,11.4765625 21.1742597,12.3144531 21.5045558,13.0996094 C21.8348519,13.8847656 22,14.6992188 22,15.5429688 C22,15.8789102 21.9259681,16.2695312 21.7779043,16.7148438 C21.6298405,17.1601562 21.4191344,17.3828125 21.1457859,17.3828125 C21.0774487,17.3828125 21.0034169,17.3535156 20.9236902,17.2949219 C20.8439636,17.2363281 20.7718337,17.1679727 20.7072893,17.0898438 C20.6427449,17.0117148 20.570615,16.9101602 20.4908884,16.7851562 C20.4111617,16.6601523 20.3504214,16.5566406 20.308656,16.4746094 C20.2668907,16.3925781 20.2156378,16.2910117 20.1548975,16.1699219 C20.0941572,16.048832 20.0599886,15.9804648 20.0523918,15.9648437 C20.0473273,15.9596328 20.0169552,15.9713516 19.9612756,16 C19.5132916,17.2031289 19.0121526,18.0742188 18.4578588,18.6132812 C18.6097153,18.7695273 18.8432005,18.9199258 19.1583144,19.0644531 C19.4734282,19.2089805 19.7353872,19.3710977 19.9441913,19.5507812 C20.1529954,19.7304648 20.287779,19.984375 20.3485194,20.3125 C20.3333371,20.3437539 20.3181435,20.40625 20.3029613,20.5 C20.287779,20.59375 20.2611959,20.6640625 20.2232346,20.7109375 C19.7372779,21.4687539 18.5907403,21.8476562 16.7835991,21.8476562 C16.3811731,21.8476562 15.9616515,21.8125 15.5250569,21.7421875 C15.0884624,21.671875 14.7164009,21.5937461 14.4088838,21.5078125 C14.1013667,21.4218789 13.7046355,21.3046914 13.2186788,21.15625 C13.1047836,21.1171914 13.0174601,21.0898398 12.9567198,21.0742188 C12.8504214,21.0429648 12.6757745,21.0253867 12.4328018,21.0214844 C12.1898292,21.017582 12.0379613,21.0117227 11.977221,21.0039062 C11.6659112,21.3554688 11.1818565,21.6093789 10.5250569,21.765625 C9.8682574,21.9218711 9.22855353,22 8.60592255,22 C8.34017084,22 8.07821185,21.9941406 7.82004556,21.9824219 C7.56187927,21.9707031 7.2088041,21.9355469 6.76082005,21.8769531 C6.31283599,21.8183594 5.92938497,21.7382852 5.61047836,21.6367188 C5.29157175,21.5351523 5.00873576,21.3789062 4.761959,21.1679688 C4.51518223,20.9570312 4.39179954,20.7070352 4.39179954,20.4179688 C4.39179954,20.1054648 4.42976082,19.8730469 4.50569476,19.7207031 C4.5816287,19.5683594 4.7372779,19.3789023 4.97266515,19.1523438 C5.05618451,19.1367227 5.20994305,19.0859336 5.43394077,19 C5.6579385,18.9140664 5.8458656,18.8671914 5.9977221,18.859375 C6.02809795,18.859375 6.08124146,18.8515586 6.1571754,18.8359375 C6.16729689,18.8255234 6.16729689,18.7981797 6.1571754,18.7539062 C5.79271071,18.6679727 5.38268793,18.2558594 4.92710706,17.5175781 C4.4715262,16.7792969 4.19438497,16.1679648 4.09567198,15.6835938 L4.03872437,15.6484375 C4.00834852,15.6484375 3.96279043,15.7265664 3.90205011,15.8828125 C3.76537585,16.2031211 3.55846241,16.4941445 3.28132118,16.7558594 C3.00417995,17.0175742 2.70994305,17.1640586 2.39863326,17.1953125 C2.35686788,17.1953125 2.33408884,17.1777344 2.31890661,17.1425781 C2.30372437,17.1074219 2.28473804,17.0859414 2.261959,17.078125 C2.08732346,16.65625 2,16.2656289 2,15.90625 C2,13.7578164 2.95671982,11.9374961 4.87015945,10.4453125 C4.80941913,10.2968711 4.77904328,10.09375 4.77904328,9.8359375 Z" id="Page-1" fill="#FFFFFF"></path>
        <rect id="Rectangle-10" x="0" y="0" width="24" height="24"></rect>
    </g>
</svg>