<?xml version="1.0" encoding="utf-8"?>
<!-- Generator: Adobe Illustrator 23.0.1, SVG Export Plug-In . SVG Version: 6.00 Build 0)  -->
<svg version="1.1" id="圖層_1" xmlns="http://www.w3.org/2000/svg" xmlns:xlink="http://www.w3.org/1999/xlink" x="0px" y="0px"
	 viewBox="0 0 115 170" style="enable-background:new 0 0 115 170;" xml:space="preserve">
<style type="text/css">
	.st0{fill:url(#SVGID_1_);}
	.st1{fill:url(#SVGID_2_);}
	.st2{opacity:0.19;clip-path:url(#SVGID_4_);}
	.st3{fill:#EB6D93;}
	.st4{opacity:0.19;clip-path:url(#SVGID_6_);}
	.st5{fill:url(#SVGID_7_);}
	.st6{fill:url(#SVGID_8_);}
	.st7{fill:url(#SVGID_9_);}
	.st8{opacity:0.9;fill:url(#SVGID_10_);}
	.st9{fill:url(#SVGID_11_);}
	.st10{fill:url(#SVGID_12_);}
	.st11{fill:url(#SVGID_13_);}
	.st12{fill:url(#SVGID_14_);}
	.st13{fill:#FFF2AB;}
	.st14{fill:#FFFFFF;}
</style>
<g>
	<g>
		<g>
			
				<linearGradient id="SVGID_1_" gradientUnits="userSpaceOnUse" x1="57.9112" y1="-801.0261" x2="56.6882" y2="-1034.0149" gradientTransform="matrix(1 0 0 -1 0 -821)">
				<stop  offset="0" style="stop-color:#ED7B5C"/>
				<stop  offset="0.7716" style="stop-color:#D94140"/>
			</linearGradient>
			<path class="st0" d="M106.2,166.2H8.4c-2.7,0-4.8-2.2-4.8-4.8V12.5c0-5.1,4.2-9.3,9.3-9.3h88.9c5.1,0,9.3,4.2,9.3,9.3v148.9
				C111,164.1,108.9,166.2,106.2,166.2z"/>
			
				<linearGradient id="SVGID_2_" gradientUnits="userSpaceOnUse" x1="57.4158" y1="-815.6395" x2="56.9741" y2="-899.796" gradientTransform="matrix(1 0 0 -1 0 -821)">
				<stop  offset="0" style="stop-color:#ED7B5C"/>
				<stop  offset="0.7716" style="stop-color:#D94140"/>
			</linearGradient>
			<path class="st1" d="M3.6,26v0.1C4,46,27.9,62,57.3,62s53.4-16,53.7-35.9V26V7.3c0-2.2-1.8-4.1-4.1-4.1H7.7
				C5.4,3.2,3.6,5,3.6,7.3V26z"/>
		</g>
		<g>
			<g>
				<defs>
					<path id="SVGID_3_" d="M96.6,165.9H17.9c-7.9,0-14.3-6.4-14.3-14.3V24.3C3.6,16.4,10,10,17.9,10h78.7c7.9,0,14.3,6.4,14.3,14.3
						v126.9C110.9,159.5,104.4,165.9,96.6,165.9z"/>
				</defs>
				<clipPath id="SVGID_4_">
					<use xlink:href="#SVGID_3_"  style="overflow:visible;"/>
				</clipPath>
				<g class="st2">
					<path class="st3" d="M10,176.3c-3.2,1.4-6.4,2.9-9.7,3.9c-1.4,0.4-3.2,0.4-4.6-0.4c-4.3-1.8-8.2-3.9-12.2-5.7
						c-0.7-0.4-1.1-1.1-1.4-1.4c-0.4-2.9-0.7-6.1-0.4-8.9c0.4-2.9,2.5-4.3,5-4.6c2.9,0,3.9,1.1,3.9,3.9c-0.7,5,1.4,7.5,7.9,9.7
						c2.9,1.1,6.4,1.4,9.3,2.1c0.7,0,1.4,0.4,1.8,0.4C9.7,175.9,9.7,175.9,10,176.3z"/>
					<path class="st3" d="M-3.9,135.2c-1.4-2.1-3.2-3.9-3.9-6.1c-0.7-1.4,0-3.6,0.7-5c1.1-2.9,2.5-5.4,3.6-8.2
						c0.4-1.4,1.1-1.8,2.5-1.8c3.2,0,6.4,0,9.7,0s4.6,1.4,3.6,4.6c-1.1,3.6-2.9,5.7-6.8,6.1c-2.5,0-4.6,0.4-6.8,1.1
						c-0.7,0-1.8,1.1-1.8,1.8c0,2.5,0.4,5,0.4,7.5C-3.6,134.8-3.9,135.2-3.9,135.2z"/>
					<path class="st3" d="M59.7,172.3c-2.1-0.4-4.6-0.7-6.8-1.4c-1.1-0.4-2.9-0.4-2.5-2.1s1.4-3.2,3.6-3.2c0.4,0,0.4,0,0.7,0
						c5,0.7,6.4,0.4,8.6-4.3c2.1-3.9,3.6-8.2,5.4-12.5c0.4-1.1,0.7-2.1,2.1-1.8c1.1,0.4,2.5,1.1,2.5,1.8c0,1.4-0.4,3.2-0.7,4.3
						c-1.1,2.1-2.1,3.9-3.2,6.1c-0.4,1.1-1.1,2.5-0.7,3.6c0.7,2.5-0.7,3.9-2.5,5.4C64.4,170.5,62.6,172.7,59.7,172.3z"/>
					<path class="st3" d="M9.3,140.5c-2.1,0-4.6,0.4-7.2,0.4c-0.7,0-1.4-0.7-1.8-1.4c-1.8-3.6-2.5-7.5-1.8-11.8
						c2.9-0.4,5.7-1.1,8.6-1.1c3.2,0,6.1,2.1,6.4,5.4c0,0.7-0.4,1.1-0.7,1.8C11.5,135.9,10.4,138,9.3,140.5z"/>
					<path class="st3" d="M32.9,163.8c5.7,2.1,8.9,0,11.4-3.9c1.1-1.8,4.6-2.9,6.1-1.8c1.8,1.4,1.4,3.6,1.1,5.4
						c-0.7,3.6-7.5,9.7-11.1,10.4c-1.8,0.4-3.2-0.4-4.3-1.8C35.1,169.8,34.3,167,32.9,163.8z"/>
					<path class="st3" d="M65.1,141.2c1.4,3.6,2.9,6.4,1.4,9.7c-1.4,3.2-2.9,6.4-4.3,9.3c-1.8,3.6-2.9,3.6-6.8,2.9
						c0.4-1.1,0.4-1.8,0.7-2.9c0.4-1.4,0.7-3.2-1.1-4.3c-0.4-0.4-0.4-1.8,0-2.5c0.4-1.1,1.4-1.8,1.4-2.5
						C56.9,145.2,61.5,144.1,65.1,141.2z"/>
					<path class="st3" d="M56.5,135.5c-3.2-2.9-6.4-5.4-9.3-8.6c-1.4-1.4-2.9-3.6-3.6-5.7c-0.4-1.1,0-3.2,0.7-3.9
						c0.7-0.7,2.5-0.7,3.9-0.7c0.7,0,1.1,0.4,1.8,0.4c1.1,0,2.1,0,3.6,0C55.4,123,59.7,128.7,56.5,135.5z"/>
					<path class="st3" d="M18.3,164.8c-1.4,4.3-6.8,8.2-11.1,7.5c-3.9-0.7-7.9-2.1-11.8-3.6c-1.1-0.4-2.1-2.1-2.5-3.6
						c-0.7-2.9,1.1-4.3,3.9-3.2c3.6,1.1,7.2,2.1,10.7,2.9c2.9,0.4,5.7,0.4,8.6,0.4C16.5,165.2,17.2,164.8,18.3,164.8z"/>
					<path class="st3" d="M57.2,121.6c2.5-0.7,4.3-1.1,6.8-1.4c1.8,1.8,2.9,4.6,3.2,7.5c0,2.9,0,6.1,0,8.9c0,0.4,0,1.1-0.4,1.4
						c-2.1,1.4-4.3,2.9-6.8,3.9c-0.7,0.4-1.8-0.4-2.5-0.7c-0.4-0.7-0.7-2.1-0.4-2.5c3.9-5,3.2-9.7,0.7-15
						C57.6,122.6,57.6,121.9,57.2,121.6z"/>
					<path class="st3" d="M48.3,133c5.4,3.2,8.2,8.6,7.5,13.6c-0.7,4.3-5.4,8.2-10,8.9c2.1-4.6,1.8-7.9-1.1-12.5
						C48.6,140.9,48.3,136.9,48.3,133z"/>
					<path class="st3" d="M32.2,122.6c1.8,0,3.9,0,6.1,0c0.7,0,1.4,0.4,1.8,0.7c4.6,3.9,7.2,8.2,4.6,14.3c-0.4,0.7-0.4,1.4-0.7,2.5
						c-1.1-1.4-2.1-2.5-2.9-3.9c-1.8-2.5-3.9-4.6-7.5-5.4c-1.4,0-1.4-1.4-1.4-2.9C32.2,126.2,32.2,124.4,32.2,122.6z"/>
					<path class="st3" d="M39.4,119.4c-3.2,0.4-6.4,1.1-9.7,1.4c-0.4,0-0.7,0-1.1,0c-4.3-2.9-8.6-5.4-14.7-6.1
						c2.9-2.1,5.4-3.9,7.5-5.7c0.7-0.4,2.1-0.4,2.5,0c3.2,3.6,7.2,5.7,11.4,7.5c1.4,0.4,2.5,1.4,3.9,2.1
						C39.4,119.1,39.4,119.4,39.4,119.4z"/>
					<path class="st3" d="M20.4,164.5c3.2,0.7,6.8,1.8,10.4-1.1c0.4,2.5,1.1,4.6,1.1,6.4c0,1.1-1.1,2.5-1.8,3.2
						c-5,3.2-9.3,3.2-14.3-1.4c0.7-1.1,1.8-2.1,2.5-3.6C19.3,167.3,19.7,165.9,20.4,164.5z"/>
					<path class="st3" d="M15.4,130.5c-1.8-2.9-2.9-5.7-0.7-8.9c0.7-1.1,0.7-2.1,1.1-3.6c4.3,1.8,8.2,3.6,12.2,5.4
						c2.5,1.1,2.5,2.9,1.4,7.2c-0.7-0.7-1.4-1.1-1.8-1.4c-2.1-1.8-4.3,0-6.1,0C19,129.1,17.2,128,15.4,130.5z"/>
					<path class="st3" d="M17.5,152.7c-1.8,2.5-3.9,3.6-6.4,2.1c-3.9-2.1-7.2-4.6-10.7-7.2c-1.8-1.1-1.1-2.5,0.4-3.6
						c2.9-1.8,6.8-1.4,9.3,1.1c1.4,1.4,2.1,3.6,3.6,5C14.7,151.2,16.1,152,17.5,152.7z"/>
					<path class="st3" d="M19.7,153.4c2.5,0.4,4.6,0.7,6.8,1.1c3.2,0.4,4.6,1.4,4.6,3.6c0,2.5-1.4,4.3-4.6,4.6
						c-4.3,0.7-7.9-0.7-11.4-3.2c0-0.4-0.7-1.4-0.4-1.8c0.4-0.7,1.1-1.4,1.8-1.4C18.6,156.2,20,155.5,19.7,153.4z"/>
					<path class="st3" d="M43.6,150.9c-0.7,3.9-0.7,8.2-5.4,10.4c-2.5,1.1-3.6,0.4-3.9-2.1c-1.1-5,1.4-8.6,4.6-11.8
						c0.7-0.7,2.5-1.1,3.2-0.7c0.7,0,1.1,1.8,1.4,2.5C43.6,149.8,43.6,150.2,43.6,150.9z"/>
					<path class="st3" d="M15,163.4c-1.4,0-2.5,0.4-3.9,0c-2.5-0.7-5-1.4-7.5-2.1c-2.5-0.7-4.6-1.4-7.2-2.5c1.4-4.6,4.6-6.1,9.3-3.9
						c0.7,0.4,1.8,0.7,2.5,0.7c1.8,0.4,3.2,1.4,3.9,3.2C12.9,160.2,14,161.6,15,163.4z"/>
					<path class="st3" d="M27.9,139.1c2.5,1.4,4.3,2.1,6.1,3.6c1.8,1.1,1.8,4.6,0.4,7.9c-1.4,2.5-3.9,3.6-6.4,2.9
						c-1.4-0.4-2.1-1.4-1.4-2.9C28.3,147,28.6,143.4,27.9,139.1z"/>
					<path class="st3" d="M15.4,136.6c2.1-5.7,4.3-6.8,10.4-4.6c1.4,0.4,3.2,0.7,5.4,1.1c-1.8,1.8-2.9,3.6-4.6,4.6
						c-1.1,0.7-2.9,0.4-3.9-0.4c-1.4-0.7-2.9-1.4-4.6-0.7C17.2,136.9,16.1,136.6,15.4,136.6z"/>
					<path class="st3" d="M16.8,148.4c-4.3-2.5-6.1-6.4-4.6-9.7c2.1,0,3.9,0,6.1,0c2.5,0,2.9,0.7,2.1,2.9
						C19.3,144.1,17.9,146.2,16.8,148.4z"/>
					<path class="st3" d="M36.5,144.1c-0.7-3.2-2.5-6.1-6.8-6.4c1.1-1.4,1.4-2.5,2.5-3.6c0.4-0.4,1.4-0.7,2.1-0.4
						c3.2,2.5,6.4,4.6,8.2,7.9C40.4,142.3,38.6,143,36.5,144.1z"/>
					<path class="st3" d="M25.8,147.3c-0.4,1.4-0.7,3.2-1.1,5c-1.8-1.1-3.6-2.1-6.1-3.6c2.5-1.1,4.6-1.4,6.8-2.1
						C25.4,146.6,25.8,147,25.8,147.3z"/>
					<path class="st3" d="M26.5,141.9c0.4,2.1,0,3.2-2.5,2.9c-1.1,0-1.8,0.7-2.9,1.1C20.8,143,22.2,141.9,26.5,141.9z"/>
				</g>
			</g>
			<g>
				<defs>
					<path id="SVGID_5_" d="M106.2,166.2H8.4c-2.7,0-4.8-2.2-4.8-4.8V12.5c0-5.1,4.2-9.3,9.3-9.3h88.9c5.1,0,9.3,4.2,9.3,9.3v148.9
						C111,164.1,108.9,166.2,106.2,166.2z"/>
				</defs>
				<clipPath id="SVGID_6_">
					<use xlink:href="#SVGID_5_"  style="overflow:visible;"/>
				</clipPath>
				<g class="st4">
					<path class="st3" d="M79,29.7c-1.1,0.7-1.8,1.5-2.5,1.9c0.7,0.7,1.8,1.9,2.1,2.6c0.7,1.1,0.7,1.5-0.7,1.9
						c-0.7,0-1.4,0.4-1.8,1.5c-1.1,2.6-3.9,3-5.4,0.4c-1.1-1.9-1.4-3.7-1.8-6c-0.4-1.5-0.4-3.4-0.4-4.9c0-0.7,0-1.9,1.1-2.2
						c1.1-0.4,2.1-0.7,3.2,0.4c0.7,0.7,1.4,0.7,2.1,1.1C76.5,27.1,77.6,28.6,79,29.7z"/>
					<path class="st3" d="M85.5,51.3c-1.8,0.7-3.6,1.9-5.7,2.6c-0.7,0.4-1.8,0.4-2.9,0c-2.5-1.1-5-2.2-7.5-3.7
						c-0.4,0-0.7-0.7-0.7-0.7c0-1.9-0.4-3.7-0.4-5.6s1.4-2.6,2.9-3c1.8,0,2.5,0.7,2.1,2.6c-0.4,3.4,0.7,4.9,4.6,6
						c1.8,0.7,3.9,0.7,5.7,1.5c0.4,0,0.7,0.4,1.1,0.4C85.5,51,85.5,51,85.5,51.3z"/>
					<path class="st3" d="M88.3,51c1.8,1.5,4.6,1.9,7.2,1.5c1.4,0,2.1,0.7,2.9,1.9c0.7,1.1,0,2.2-1.1,3c-1.8,1.1-3.6,1.9-5.7,2.6
						c-0.4,0-0.4,0-0.7,0c-2.5-1.1-5-2.6-7.2-3.7c-1.4-0.7-1.1-1.5,0-2.2C85.1,52.8,86.5,51.7,88.3,51z"/>
					<path class="st3" d="M114.1,49.8c-0.4,3.7-2.5,6-6.4,6.7c-1.8,0.4-3.6,0.4-5.4,0.4c-0.7,0-1.4-0.4-1.8-1.1
						c-0.7-1.1-1.8-2.6-2.1-3.7c0-0.4,0-1.1,0.4-1.5c0.4-0.4,1.4-1.1,1.8-0.4c1.8,2.2,3.6,1.5,5.4,0.4c1.1-0.4,2.1-1.5,2.9-2.2
						C110.9,49.1,112.6,49.5,114.1,49.8z"/>
					<path class="st3" d="M77.3,25.2c-0.7-1.1-1.8-2.6-2.5-3.7c-0.4-0.7,0-2.2,0.4-3.4c0.7-1.9,1.4-3.4,2.1-5.2
						c0-0.7,0.4-1.1,1.4-1.1c1.8,0,3.9,0,5.7,0c2.1,0,2.9,1.1,2.1,3c-0.7,2.2-1.8,3.7-4.3,3.7c-1.4,0-2.9,0.4-4.3,0.7
						c-0.4,0-1.1,0.7-1.1,1.1C77.3,21.9,77.3,23.4,77.3,25.2L77.3,25.2z"/>
					<path class="st3" d="M115.9,48.7c-1.4-0.4-2.9-0.4-3.9-0.7c-0.7,0-1.8-0.4-1.4-1.5c0.4-1.1,1.1-1.9,2.1-1.9h0.4
						c2.9,0.4,3.9,0,5.4-2.6c1.1-2.6,2.1-5.2,3.2-7.8c0-0.7,0-1.5,0.7-1.1c0.7,0.4,1.4,0.7,1.4,1.1c0,0.7,0,1.9-0.4,3
						c-0.7,1.5-1.4,2.6-2.1,4.1c-0.4,0.7-0.7,1.5-0.4,2.2c0.4,1.5-0.4,2.6-1.4,3.4C118.7,47.6,117.7,48.7,115.9,48.7z"/>
					<path class="st3" d="M85.1,28.6c-1.1,0-2.9,0.4-4.3,0c-0.4,0-1.1-0.4-1.1-0.7c-1.1-2.2-1.4-4.5-1.1-7.5c1.8-0.4,3.6-0.7,5-0.7
						c2.1,0,3.6,1.5,3.9,3.4c0,0.4-0.4,0.7-0.4,1.1C86.5,26,85.8,27.1,85.1,28.6z"/>
					<path class="st3" d="M99.4,43.5c3.6,1.5,5.4,0,6.8-2.6c0.7-1.1,2.9-1.9,3.6-1.1c1.1,0.7,0.7,2.2,0.7,3.4
						c-0.4,2.2-4.6,6.3-6.8,6.7c-1.1,0.4-2.1,0-2.5-1.1C100.9,47.2,100.1,45.4,99.4,43.5z"/>
					<path class="st3" d="M119.1,28.9c1.1,2.2,1.8,4.1,0.7,6c-1.1,1.9-1.8,4.1-2.5,6c-1.1,2.2-1.8,2.2-4.3,1.9
						c0-0.7,0.4-1.1,0.4-1.9c0-1.1,0.4-1.9-0.7-3c-0.4-0.4,0-1.1,0-1.9s0.7-1.1,0.7-1.5C114.1,31.6,116.9,30.8,119.1,28.9z"/>
					<path class="st3" d="M113.7,25.6c-2.1-1.9-3.9-3.4-5.7-5.2c-1.1-1.1-1.8-2.2-2.1-3.7c-0.4-0.7,0-1.9,0.4-2.6
						c0.4-0.4,1.4-0.4,2.1-0.4c0.4,0,0.7,0.4,1.1,0.4c0.7,0,1.4,0,2.1,0C113,17.8,115.5,21.5,113.7,25.6z"/>
					<path class="st3" d="M90.5,43.9c-0.7,2.6-4.3,5.2-6.8,4.9c-2.5-0.4-5-1.5-7.2-2.2c-0.7-0.4-1.4-1.5-1.4-2.2
						c-0.4-1.9,0.7-2.6,2.1-2.2c2.1,0.7,4.3,1.5,6.4,1.9c1.8,0.4,3.6,0,5,0.4C89.4,44.2,89.8,44.2,90.5,43.9z"/>
					<path class="st3" d="M114.1,16.6c1.4-0.4,2.9-0.7,4.3-1.1c1.1,1.1,1.8,3,1.8,4.9s0,3.7,0,5.6c0,0.4,0,0.7-0.4,0.7
						c-1.4,0.7-2.5,1.9-3.9,2.2c-0.4,0-1.1,0-1.4-0.4c-0.4-0.4-0.4-1.1,0-1.5c2.5-3,2.1-6.3,0.4-9.3C114.4,17.4,114.4,17,114.1,16.6
						z"/>
					<path class="st3" d="M108.7,24.1c3.2,1.9,5,5.6,4.3,8.6c-0.4,2.6-3.2,5.2-6.1,5.6c1.1-3,1.1-4.9-0.7-7.8
						C109.1,28.9,108.7,26.3,108.7,24.1z"/>
					<path class="st3" d="M99.1,17.4c1.1,0,2.5,0,3.9,0c0.4,0,0.7,0.4,1.1,0.4c2.9,2.6,4.3,5.2,2.9,9c0,0.4-0.4,1.1-0.4,1.5
						c-0.7-0.7-1.4-1.5-1.8-2.2c-1.1-1.5-2.5-3-4.3-3.4c-1.1-0.4-1.1-1.1-1.1-1.9C99.1,19.6,99.1,18.5,99.1,17.4z"/>
					<path class="st3" d="M103.4,15.5c-1.8,0.4-3.9,0.7-5.7,0.7c-0.4,0-0.4,0-0.7,0c-2.5-1.9-5.4-3.4-8.9-3.7
						c1.8-1.5,3.2-2.6,4.6-3.7c0.4-0.4,1.4-0.4,1.4,0c1.8,2.2,4.3,3.7,7.2,4.5c0.7,0.4,1.4,0.7,2.1,1.1
						C103.4,15.1,103.4,15.1,103.4,15.5z"/>
					<path class="st3" d="M91.9,43.9c2.1,0.4,3.9,1.1,6.1-0.7c0.4,1.5,0.7,3,0.7,4.1c0,0.7-0.7,1.5-1.1,1.9
						c-2.9,1.9-5.7,1.9-8.6-0.7c0.7-0.7,1.1-1.5,1.4-2.2C91.2,45.7,91.6,44.6,91.9,43.9z"/>
					<path class="st3" d="M89.1,22.2c-1.1-1.9-1.8-3.7-0.4-5.6c0.4-0.7,0.4-1.5,0.7-2.2c2.5,1.1,5,2.2,7.5,3.4
						c1.4,0.7,1.4,1.9,0.7,4.5c-0.4-0.4-0.7-0.7-1.1-0.7c-1.4-1.1-2.5,0-3.6,0C91.2,21.5,89.8,20.7,89.1,22.2z"/>
					<path class="st3" d="M90.1,36.4c-1.1,1.5-2.5,2.2-3.9,1.1c-2.1-1.5-4.3-3-6.4-4.5c-1.1-0.7-0.7-1.5,0.4-2.2
						c1.8-1.1,4.3-1.1,5.7,0.7c0.7,1.1,1.4,2.2,2.1,3C88.3,35.3,89.4,36,90.1,36.4z"/>
					<path class="st3" d="M91.6,36.8c1.4,0.4,2.9,0.4,3.9,0.7c1.8,0,2.9,0.7,2.9,2.2c0,1.5-1.1,2.6-2.9,3c-2.5,0.4-4.6-0.4-6.8-1.9
						c-0.4-0.4-0.7-0.7-0.7-1.1c0.4-0.4,0.7-0.7,1.1-0.7C90.8,38.7,91.9,38.3,91.6,36.8z"/>
					<path class="st3" d="M105.9,35.3c-0.4,2.6-0.4,5.2-3.2,6.7c-1.4,0.7-2.1,0.4-2.5-1.5c-0.4-3,1.1-5.2,2.9-7.5
						c0.4-0.4,1.4-0.7,2.1-0.4c0.4,0,0.7,1.1,0.7,1.9C105.9,34.5,105.9,34.9,105.9,35.3z"/>
					<path class="st3" d="M88.7,43.1c-0.7,0-1.8,0-2.5,0c-1.4-0.4-2.9-0.7-4.6-1.1c-1.4-0.4-2.9-1.1-4.3-1.5c0.7-3,2.9-3.7,5.4-2.6
						c0.4,0.4,1.1,0.4,1.4,0.4c1.1,0.4,1.8,0.7,2.5,1.9C87.3,41.3,88,42,88.7,43.1z"/>
					<path class="st3" d="M96.2,27.8c1.4,0.7,2.5,1.5,3.6,2.2c1.1,0.7,1.1,3,0.4,4.9c-0.7,1.5-2.5,2.2-3.9,1.9
						c-0.7-0.4-1.4-1.1-1.1-1.9C96.6,32.7,96.9,30.4,96.2,27.8z"/>
					<path class="st3" d="M88.7,26.3c1.4-3.7,2.5-4.1,6.1-3c1.1,0.4,2.1,0.4,3.2,0.7c-0.7,1.1-1.4,2.2-2.5,2.6
						c-0.7,0.4-1.8,0-2.5-0.4c-1.1-0.4-1.8-1.1-2.9-0.4C89.8,26.3,89.4,26.3,88.7,26.3z"/>
					<path class="st3" d="M89.8,33.8c-2.5-1.5-3.6-4.1-2.9-6.3c1.4,0,2.5,0,3.6,0c1.4,0,1.8,0.4,1.4,1.9
						C91.2,30.8,90.5,32.3,89.8,33.8z"/>
					<path class="st3" d="M101.6,30.8c-0.4-2.2-1.4-3.7-4.3-4.1c0.7-0.7,1.1-1.5,1.4-2.2c0.7,0,1.4-0.4,1.4,0c1.8,1.5,3.9,3,5,5.2
						C104.1,30.1,103,30.4,101.6,30.8z"/>
					<path class="st3" d="M95.1,33.1c-0.4,1.1-0.4,1.9-0.7,3.4c-1.1-0.7-2.1-1.5-3.9-2.2c1.8-0.7,2.9-1.1,4.3-1.5
						C95.1,32.7,95.1,32.7,95.1,33.1z"/>
					<path class="st3" d="M95.5,29.7c0.4,1.5,0,1.9-1.4,1.9c-0.7,0-1.1,0.4-1.8,0.7C92.3,30.4,93,29.7,95.5,29.7z"/>
				</g>
			</g>
		</g>
	</g>
	<g>
		
			<linearGradient id="SVGID_7_" gradientUnits="userSpaceOnUse" x1="-8270.0312" y1="-2182.9771" x2="-8236.1729" y2="-2182.9771" gradientTransform="matrix(-0.9524 0.3049 -0.3049 -0.9524 -8469.2236 501.0648)">
			<stop  offset="2.512887e-02" style="stop-color:#D94140;stop-opacity:0"/>
			<stop  offset="0.52" style="stop-color:#D94140;stop-opacity:0.8968"/>
			<stop  offset="0.577" style="stop-color:#D94140"/>
			<stop  offset="1" style="stop-color:#C6435C"/>
		</linearGradient>
		<circle class="st5" cx="56.5" cy="63.8" r="16.9"/>
		<g>
			
				<radialGradient id="SVGID_8_" cx="-120.7043" cy="449.1266" r="37.9764" gradientTransform="matrix(0.9853 -0.1708 0.1708 0.9853 83.3737 -419.3371)" gradientUnits="userSpaceOnUse">
				<stop  offset="0" style="stop-color:#FCC854"/>
				<stop  offset="1" style="stop-color:#F6AB34"/>
			</radialGradient>
			<circle class="st6" cx="56.7" cy="60.4" r="17"/>
			
				<radialGradient id="SVGID_9_" cx="-95.3469" cy="462.4069" r="24.024" gradientTransform="matrix(0.9853 -0.1708 0.1708 0.9853 83.3737 -419.3371)" gradientUnits="userSpaceOnUse">
				<stop  offset="0" style="stop-color:#FEF37F"/>
				<stop  offset="0.773" style="stop-color:#F7CC4C"/>
			</radialGradient>
			<circle class="st7" cx="57.8" cy="59.2" r="17"/>
			
				<radialGradient id="SVGID_10_" cx="-96.8333" cy="458.1558" r="36.9212" gradientTransform="matrix(0.9853 -0.1708 0.1708 0.9853 83.3737 -419.3371)" gradientUnits="userSpaceOnUse">
				<stop  offset="0" style="stop-color:#FCD63F"/>
				<stop  offset="0.773" style="stop-color:#F6AB34"/>
			</radialGradient>
			<circle class="st8" cx="58.1" cy="59" r="12.8"/>
			
				<radialGradient id="SVGID_11_" cx="-98.2266" cy="458.6473" r="36.9212" gradientTransform="matrix(0.9853 -0.1708 0.1708 0.9853 83.3737 -419.3371)" gradientUnits="userSpaceOnUse">
				<stop  offset="0" style="stop-color:#FCD63F"/>
				<stop  offset="0.773" style="stop-color:#F6AB34"/>
			</radialGradient>
			<circle class="st9" cx="56.8" cy="59.7" r="12.8"/>
			<g>
				
					<radialGradient id="SVGID_12_" cx="-96.6054" cy="459.821" r="35.8622" gradientTransform="matrix(0.9853 -0.1708 0.1708 0.9853 83.3737 -419.3371)" gradientUnits="userSpaceOnUse">
					<stop  offset="0" style="stop-color:#FEF37F"/>
					<stop  offset="0.773" style="stop-color:#F7CC4C"/>
				</radialGradient>
				<path class="st10" d="M64.8,51.9c0-0.1-0.1-0.1-0.2-0.1l-2.8,0c-0.1,0-0.2,0-0.2,0.1l-4.3,7.2l-4.3-7.2c0-0.1-0.1-0.1-0.2-0.1
					l-2.8,0c-0.1,0-0.2,0.1-0.2,0.1c0,0.1,0,0.2,0,0.3l3.6,5.6l-1.6,0c-0.1,0-0.3,0.1-0.3,0.3l0,1.5c0,0.1,0,0.1,0.1,0.2
					c0,0,0.1,0.1,0.2,0.1l2.9,0l1,1.7l-4,0c-0.1,0-0.1,0-0.2,0.1c0,0-0.1,0.1-0.1,0.2l0,1.5c0,0.1,0.1,0.3,0.3,0.3l4.2,0l0,4.9
					c0,0.1,0.1,0.3,0.3,0.3l2.3,0c0,0,0,0,0,0c0.1,0,0.1,0,0.1-0.1c0,0,0.1-0.1,0.1-0.2l0-4.9l4.2,0c0.1,0,0.1,0,0.2-0.1
					c0,0,0.1-0.1,0.1-0.2l0-1.5c0-0.1-0.1-0.3-0.3-0.3l-4,0l1-1.7l2.9,0c0.1,0,0.3-0.1,0.3-0.3l0-1.5c0-0.1,0-0.1-0.1-0.2
					c0,0-0.1-0.1-0.2-0.1l-1.7,0l3.6-5.6C64.8,52.1,64.8,52,64.8,51.9z"/>
				
					<radialGradient id="SVGID_13_" cx="-96.522" cy="459.2943" r="35.8622" gradientTransform="matrix(0.9853 -0.1708 0.1708 0.9853 83.3737 -419.3371)" gradientUnits="userSpaceOnUse">
					<stop  offset="0" style="stop-color:#FEF37F"/>
					<stop  offset="0.773" style="stop-color:#F7CC4C"/>
				</radialGradient>
				<path class="st11" d="M64.8,51.4c0-0.1-0.1-0.1-0.2-0.1l-2.8,0c-0.1,0-0.2,0-0.2,0.1l-4.3,7.2l-4.3-7.2c0-0.1-0.1-0.1-0.2-0.1
					l-2.8,0c-0.1,0-0.2,0.1-0.2,0.1c0,0.1,0,0.2,0,0.3l3.6,5.6l-1.6,0c-0.1,0-0.3,0.1-0.3,0.3l0,1.5c0,0.1,0,0.1,0.1,0.2
					c0,0,0.1,0.1,0.2,0.1l2.9,0l1,1.7l-4,0c-0.1,0-0.1,0-0.2,0.1c0,0-0.1,0.1-0.1,0.2l0,1.5c0,0.1,0.1,0.3,0.3,0.3l4.2,0l0,4.9
					c0,0.1,0.1,0.3,0.3,0.3l2.3,0c0,0,0,0,0,0c0.1,0,0.1,0,0.1-0.1c0,0,0.1-0.1,0.1-0.2l0-4.9l4.2,0c0.1,0,0.1,0,0.2-0.1
					c0,0,0.1-0.1,0.1-0.2l0-1.5c0-0.1-0.1-0.3-0.3-0.3l-4,0l1-1.7l2.9,0c0.1,0,0.3-0.1,0.3-0.3l0-1.5c0-0.1,0-0.1-0.1-0.2
					c0,0-0.1-0.1-0.2-0.1l-1.7,0l3.6-5.6C64.8,51.5,64.8,51.4,64.8,51.4z"/>
			</g>
		</g>
	</g>
	
		<radialGradient id="SVGID_14_" cx="57.2506" cy="-954.1" r="65.2622" gradientTransform="matrix(1 0 0 -1 0 -821)" gradientUnits="userSpaceOnUse">
		<stop  offset="0" style="stop-color:#B2362B"/>
		<stop  offset="1" style="stop-color:#B2362B;stop-opacity:0"/>
	</radialGradient>
	<path class="st12" d="M88.9,147.5H25.7c-7.9,0-14.4-6.5-14.4-14.4l0,0c0-7.9,6.5-14.4,14.4-14.4h63.1c7.9,0,14.4,6.5,14.4,14.4l0,0
		C103.3,141,96.8,147.5,88.9,147.5z"/>
	<g>
		<path class="st13" d="M33.5,132.6c-0.7,0.4-1.3,0.7-2,1v6c0,1.4-0.7,2.1-2.1,2.1h-1.8l-0.4-1.9c0.6,0.1,1.1,0.1,1.6,0.1
			s0.8-0.3,0.8-0.8v-4.6c-0.8,0.3-1.7,0.6-2.5,0.9l-0.5-1.9c1-0.3,2-0.5,3-0.9v-4.3H27v-1.9h2.6v-3.8h2v3.8h1.9v1.9h-1.9v3.4
			c0.7-0.3,1.3-0.7,2-1L33.5,132.6L33.5,132.6z M40.4,122.6c1.1,2.4,3,4.5,5.6,6.4l-1.1,1.7c-0.5-0.3-1-0.7-1.4-1.1v5.2
			c0,1.2-0.7,1.8-1.9,1.8c-0.8,0-1.6,0-2.3-0.1l-0.5-1.8c0.8,0.1,1.4,0.1,2,0.1c0.5,0,0.7-0.3,0.7-0.7V131h-4.2v7.6
			c0,0.7,0.3,1.1,1,1.1H42c0.9,0,1.4-0.2,1.6-0.5c0.2-0.4,0.4-1.2,0.5-2.3l1.9,0.6c-0.2,2-0.5,3.1-1,3.5c-0.4,0.4-1.3,0.5-2.5,0.5
			h-5c-1.4,0-2.1-0.7-2.1-2.2V130c-0.4,0.4-0.9,0.7-1.3,1l-1.1-1.6c2.4-1.7,4.2-4,5.5-6.7L40.4,122.6L40.4,122.6z M43,129.2
			c-1.5-1.3-2.7-2.9-3.6-4.6c-0.9,1.8-2,3.3-3.2,4.6H43z"/>
		<path class="st13" d="M56.2,134.6l-1.6,0.7l-0.3-1c-2.1,0.5-4,0.9-5.9,1.1l-0.5-1.7c0.3-0.1,0.6-0.3,0.8-0.5
			c0.7-0.7,1.6-1.8,2.7-3.5c-1.1,0.2-2.2,0.4-3.4,0.5l-0.5-1.7c0.3-0.1,0.6-0.4,0.8-0.7c1-1.6,2-3.4,2.8-5.3l1.8,0.7
			c-1,2.1-2,3.8-3,5.1c0.9-0.1,1.7-0.2,2.6-0.4c0.4-0.7,0.8-1.4,1.3-2.2l1.7,0.7c-2,3.3-3.6,5.7-4.9,7.1c1-0.2,2.1-0.4,3.1-0.6
			c-0.3-0.6-0.5-1.2-0.7-1.7l1.4-0.6C55.1,131.8,55.7,133.2,56.2,134.6z M50.2,136.5c-0.1,1.9-0.4,3.6-0.7,5l-1.7-0.5
			c0.5-1.4,0.8-2.9,0.9-4.7L50.2,136.5z M53.2,140.8l-1.7,0.2c-0.1-2-0.2-3.5-0.4-4.5l1.5-0.2C52.9,137.4,53.1,138.9,53.2,140.8z
			 M56.6,125.5v-1.9h9.7v1.9h-3.8v13.8h4.4v1.9H56v-1.5l-1.2,0.5c-0.4-1.5-0.8-2.8-1.2-4l1.4-0.6c0.5,1.1,1,2.4,1.3,3.6h4.2v-13.8
			h-3.9V125.5z"/>
		<path class="st13" d="M81.3,135.5h-7.5v3.4c0,0.5,0.3,0.8,1,0.8h9.7c0.4,0,0.7-0.2,0.9-0.5c0.1-0.3,0.2-1,0.4-2.3l1.9,0.6
			c-0.1,1.3-0.3,2.2-0.5,2.7c-0.3,0.9-1,1.3-2,1.4H74c-1.4,0-2.1-0.7-2.1-1.9v-10.3c-0.5,0.5-0.9,1.1-1.4,1.5l-1.4-1.7
			c1.8-1.7,3.4-4,4.7-6.9l2,0.5c-0.3,0.6-0.5,1.2-0.8,1.8h11.5c0,5.5-0.1,8.9-0.3,10.2c-0.2,1.3-1.1,2-2.6,2c-0.3,0-0.7,0-1.3-0.1
			l-0.5-1.8c0.6,0.1,1.1,0.1,1.5,0.1c0.5,0,0.9-0.4,1-1.1c0.1-0.8,0.2-3.2,0.2-7.4H73.9c-0.5,0.8-1,1.6-1.6,2.3h9V135.5z
			 M79.3,133.7v-3.1h-5.5v3.1H79.3z"/>
	</g>
</g>
</svg>
