<?xml version="1.0" encoding="UTF-8"?>
<svg width="16px" height="16px" viewBox="0 0 16 16" version="1.1" xmlns="http://www.w3.org/2000/svg" xmlns:xlink="http://www.w3.org/1999/xlink">
    <!-- Generator: Sketch 49.3 (51167) - http://www.bohemiancoding.com/sketch -->
    <title>icon_fire</title>
    <desc>Created with Sketch.</desc>
    <defs></defs>
    <g id="icon_fire" stroke="none" stroke-width="1" fill="none" fill-rule="evenodd">
        <path d="M8.36405556,13.8326556 C6.57205556,13.8326556 6.03694444,12.4451 6.1295,11.8851 C6.31305556,10.7697667 7.41516667,10.5877667 8.24661111,10.5877667 C10.2268333,10.5877667 11.0232778,8.52665556 11.0707222,7.99232222 C11.0707222,7.99232222 11.7839444,13.8326556 8.36405556,13.8326556 M8.65183333,1.0001 C9.02516667,1.68065556 9.25927778,2.59765556 9.25927778,3.61265556 C9.25927778,5.70876667 8.2785,7.40821111 7.06827778,7.40821111 C6.12483333,7.40821111 5.32761111,6.3691 5.01883333,4.9201 C3.92294444,6.46787778 3.0005,8.30187778 3.0005,10.1164333 C3.0005,12.8129889 5.38283333,15.0001 8.3205,15.0001 C11.2581667,15.0001 13.6412778,12.8129889 13.6412778,10.1164333 C13.6412778,5.21565556 8.84705556,1.16343333 8.65183333,1.0001" id="Fill-1" fill="#D81E06"></path>
    </g>
</svg>