<?xml version="1.0" encoding="UTF-8"?>
<svg width="18px" height="17px" viewBox="0 0 18 17" version="1.1" xmlns="http://www.w3.org/2000/svg" xmlns:xlink="http://www.w3.org/1999/xlink">
    <!-- Generator: Sketch 49.3 (51167) - http://www.bohemiancoding.com/sketch -->
    <title>icon_zoom out</title>
    <desc>Created with Sketch.</desc>
    <defs></defs>
    <g id="icon_zoom-out" stroke="none" stroke-width="1" fill="none" fill-rule="evenodd">
        <g id="Group-17" transform="translate(1.000000, 1.000000)">
            <g id="Group-15" transform="translate(10.736842, 4.631579) scale(-1, -1) translate(-10.736842, -4.631579) translate(5.894737, 0.000000)">
                <g id="Group-14" transform="translate(4.842105, 4.631579) scale(-1, -1) translate(-4.842105, -4.631579) ">
                    <path d="M8.19271072,1.2879257 L3.88859555,5.40490542" id="Line" stroke="#F0EFF0" stroke-linecap="square"></path>
                    <g id="Group-16" transform="translate(0.000000, 2.526316)" fill="#F0EFF0">
                        <polygon id="Triangle-3" transform="translate(3.574634, 3.082373) scale(-1, -1) rotate(45.000000) translate(-3.574634, -3.082373) " points="3.57463355 1.33871934 6.30899887 4.82602584 0.840268224 4.82602584"></polygon>
                    </g>
                </g>
            </g>
            <g id="Group-15" transform="translate(0.000000, 5.052632)">
                <g id="Group-14" transform="translate(4.842105, 4.842105) scale(-1, -1) translate(-4.842105, -4.842105) ">
                    <path d="M8.19271072,1.34646777 L3.88859555,5.65058294" id="Line" stroke="#F0EFF0" stroke-linecap="square"></path>
                    <g id="Group-16" transform="translate(0.000000, 2.641148)" fill="#F0EFF0">
                        <polygon id="Triangle-3" transform="translate(3.574634, 3.222480) scale(-1, -1) rotate(45.000000) translate(-3.574634, -3.222480) " points="3.57463355 1.39957022 6.30899887 5.04539066 0.840268224 5.04539066"></polygon>
                    </g>
                </g>
            </g>
        </g>
        <rect id="Rectangle-3" x="0" y="0" width="18" height="17"></rect>
    </g>
</svg>